# xmcd
#
# Track frame offsets:
#	150
#	10945
#	21262
#	36110
#	60699
#	74879
#	85994
#	96646
#	105926
#	119216
#	130842
#	149250
#	158008
#	168244
#	177560
#	186224
#	197173
#	209942
#
# Disc length: 3114 seconds
#
# Revision: 0
# Processed by: cddbd v1.5.2PL0 Copyright (c) Steve Scherf et al.
# Submitted via: EasyCDDAExtractor 16.1.0.1
#
DISCID=160c2812
DTITLE=Kollárovci 3 - Hej,tam od Tater
DYEAR=2008
DGENRE=Country
TTITLE0=Jo guroľek
TTITLE1=Za gurami, za ľasami
TTITLE2=Hej,tam od tater
TTITLE3=Láska
TTITLE4=V Žeľezníku na mosciku
TTITLE5=Rozvuč husle,napni slák
TTITLE6=A na močar šarga koňa
TTITLE7=Tam som cigáni
TTITLE8=Balalajka
TTITLE9=Javorovo lisce
TTITLE10=Koníčku môj sivivraný
TTITLE11=G-dur čardáš-pri muzike
TTITLE12=Nechce chlopa gavaľera
TTITLE13=Kec ja mal u oktobru narukovac
TTITLE14=Ivanku,Ivanku
TTITLE15=Pooral ja všicke roľe
TTITLE16=Oj,čij to kiň stojit
TTITLE17=Mám ťa rád
EXTD=
EXTT0=
EXTT1=
EXTT2=
EXTT3=
EXTT4=
EXTT5=
EXTT6=
EXTT7=
EXTT8=
EXTT9=
EXTT10=
EXTT11=
EXTT12=
EXTT13=
EXTT14=
EXTT15=
EXTT16=
EXTT17=
PLAYORDER=
